<svg width="20" height="18" viewBox="0 0 20 18" fill="none" xmlns="http://www.w3.org/2000/svg">
<path d="M11.4712 0.826202C10.9952 0.35025 10.2245 0.350251 9.74851 0.826202C9.27255 1.30215 9.27255 2.07291 9.74851 2.54886L14.9809 7.78128H2.07858C1.40549 7.78128 0.859833 8.32693 0.859833 9.00003C0.859833 9.67313 1.40549 10.2188 2.07858 10.2188H14.9809L9.74851 15.4512L9.66452 15.543C9.27388 16.0217 9.30222 16.7276 9.74851 17.1739C10.1948 17.6201 10.9007 17.6485 11.3794 17.2578L11.4712 17.1739L18.7837 9.86136C19.2596 9.38541 19.2596 8.61465 18.7837 8.1387L11.4712 0.826202Z" fill="black"/>
</svg>
