<svg width="40" height="40" viewBox="0 0 40 40" fill="none" xmlns="http://www.w3.org/2000/svg">
<path fill-rule="evenodd" clip-rule="evenodd" d="M0 20C0 14.6957 2.10714 9.60859 5.85786 5.85786C9.60859 2.10714 14.6957 0 20 0C25.3043 0 30.3914 2.10714 34.1421 5.85786C37.8929 9.60859 40 14.6957 40 20C40 25.3043 37.8929 30.3914 34.1421 34.1421C30.3914 37.8929 25.3043 40 20 40C14.6957 40 9.60859 37.8929 5.85786 34.1421C2.10714 30.3914 0 25.3043 0 20ZM20 2.86879C15.4565 2.86879 11.0991 4.67368 7.88641 7.88641C4.67368 11.0991 2.86879 15.4565 2.86879 20C2.86879 24.5435 4.67368 28.9009 7.88641 32.1136C11.0991 35.3263 15.4565 37.1312 20 37.1312C24.5435 37.1312 28.9009 35.3263 32.1136 32.1136C35.3263 28.9009 37.1312 24.5435 37.1312 20C37.1312 15.4565 35.3263 11.0991 32.1136 7.88641C28.9009 4.67368 24.5435 2.86879 20 2.86879ZM27.1086 12.8945C27.3916 13.1776 27.5506 13.5616 27.5506 13.962C27.5506 14.3623 27.3916 14.7463 27.1086 15.0294L22.135 20L27.1086 24.9706C27.3921 25.2541 27.5514 25.6386 27.5514 26.0396C27.5514 26.4405 27.3921 26.825 27.1086 27.1086C26.825 27.3921 26.4405 27.5514 26.0396 27.5514C25.6386 27.5514 25.2541 27.3921 24.9706 27.1086L20 22.135L15.0294 27.1086C14.8891 27.2489 14.7224 27.3603 14.539 27.4363C14.3556 27.5123 14.159 27.5514 13.9604 27.5514C13.7619 27.5514 13.5653 27.5123 13.3819 27.4363C13.1985 27.3603 13.0318 27.2489 12.8914 27.1086C12.7511 26.9682 12.6397 26.8015 12.5637 26.6181C12.4877 26.4347 12.4486 26.2381 12.4486 26.0396C12.4486 25.841 12.4877 25.6444 12.5637 25.461C12.6397 25.2776 12.7511 25.1109 12.8914 24.9706L17.865 20L12.8914 15.0294C12.6079 14.7459 12.4486 14.3614 12.4486 13.9604C12.4486 13.5595 12.6079 13.175 12.8914 12.8914C13.175 12.6079 13.5595 12.4486 13.9604 12.4486C14.3614 12.4486 14.7459 12.6079 15.0294 12.8914L20 17.865L24.9706 12.8914C25.1108 12.7508 25.2774 12.6393 25.4609 12.5632C25.6443 12.487 25.841 12.4479 26.0396 12.4479C26.2382 12.4479 26.4348 12.487 26.6182 12.5632C26.8017 12.6393 26.9683 12.7538 27.1086 12.8945Z" fill="white"/>
</svg>
