<svg width="15" height="15" viewBox="0 0 15 15" fill="none" xmlns="http://www.w3.org/2000/svg">
<path d="M7.4498 10.645C7.33063 10.645 7.21891 10.6265 7.11464 10.5895C7.01037 10.5526 6.91355 10.4892 6.82417 10.3992L3.60668 7.18168C3.42793 7.00293 3.34213 6.79439 3.34928 6.55606C3.35643 6.31772 3.44223 6.10918 3.60668 5.93043C3.78543 5.75168 3.99784 5.65873 4.24392 5.65158C4.49 5.64443 4.70212 5.72993 4.88027 5.90809L6.55605 7.58387V1.19356C6.55605 0.940328 6.64185 0.728212 6.81345 0.557208C6.98505 0.386204 7.19717 0.300404 7.4498 0.299808C7.70243 0.299212 7.91485 0.385012 8.08704 0.557208C8.25924 0.729404 8.34474 0.94152 8.34355 1.19356V7.58387L10.0193 5.90809C10.1981 5.72934 10.4105 5.64354 10.6566 5.65069C10.9026 5.65784 11.1148 5.75108 11.2929 5.93043C11.4568 6.10918 11.5426 6.31772 11.5503 6.55606C11.5581 6.79439 11.4723 7.00293 11.2929 7.18168L8.07542 10.3992C7.98605 10.4886 7.88923 10.552 7.78495 10.5895C7.68068 10.6271 7.56896 10.6456 7.4498 10.645ZM2.0873 14.5998C1.59574 14.5998 1.17508 14.4249 0.825329 14.0752C0.475575 13.7254 0.300401 13.3045 0.299805 12.8123V11.0248C0.299805 10.7716 0.385605 10.5595 0.557205 10.3885C0.728804 10.2175 0.940921 10.1317 1.19355 10.1311C1.44619 10.1305 1.6586 10.2163 1.8308 10.3885C2.00299 10.5607 2.08849 10.7728 2.0873 11.0248V12.8123H12.8123V11.0248C12.8123 10.7716 12.8981 10.5595 13.0697 10.3885C13.2413 10.2175 13.4534 10.1317 13.706 10.1311C13.9587 10.1305 14.1711 10.2163 14.3433 10.3885C14.5155 10.5607 14.601 10.7728 14.5998 11.0248V12.8123C14.5998 13.3039 14.4249 13.7248 14.0752 14.0752C13.7254 14.4255 13.3045 14.6004 12.8123 14.5998H2.0873Z" fill="white"/>
</svg>
