<svg width="26" height="25" viewBox="0 0 26 25" fill="none" xmlns="http://www.w3.org/2000/svg">
<path d="M24.1782 8.94983C24.1782 8.94983 25.4812 9.84199 24.4898 10.4901C23.5834 11.067 22.9602 9.71769 21.6208 9.91302C21.4873 9.93079 21.3457 9.96628 21.1959 10.0195C20.9612 10.1038 20.7751 10.2148 20.6335 10.348H20.6294C20.2086 10.7253 20.16 11.2535 20.2126 11.6884C20.2612 12.1101 20.4595 12.4918 20.7185 12.807C22.5879 15.0706 24.5667 19.0964 22.4301 21.9859C20.1843 25.0219 13.9204 25.4213 8.82986 24.6756C4.93714 24.0942 2.89367 22.0347 3.09194 18.8345C3.15667 17.8447 3.43186 16.7528 3.93362 15.5544C4.39087 14.4581 5.08281 13.668 5.88403 13.1088C8.70037 11.1336 12.8683 11.9459 13.1111 11.9902C9.10907 9.96184 9.85363 5.4878 9.85363 5.4878C8.70847 5.27031 8.68825 4.42692 8.68825 4.42692C9.3033 4.70661 9.74032 3.96535 9.74032 3.96535C8.08127 3.34838 8.4657 1.28005 8.4657 1.28005C8.4657 1.28005 9.1293 1.8171 10.4363 2.14555C11.7514 2.46955 11.541 0.294656 15.4904 0.0150223C19.0311 -0.238006 20.504 2.75802 21.718 5.03061C22.9926 7.42294 25.1534 5.31907 25.1534 5.31907C26.5737 7.47626 24.1782 8.94983 24.1782 8.94983Z" fill="white"/>
<path d="M20.8439 12.9623C22.6729 15.2482 24.5181 19.1585 22.4301 21.9859C20.1843 25.0219 13.9204 25.4213 8.82986 24.6756C6.00947 24.254 4.16022 23.06 3.43185 21.2136C4.403 22.1235 5.8395 22.7359 7.6928 23.0112C12.7833 23.7568 19.0472 23.3574 21.293 20.3214C22.9359 18.1021 22.1469 15.2082 20.8439 12.9623Z" fill="white"/>
<path d="M5.88403 13.1088C5.08281 13.668 4.39087 14.4581 3.93362 15.5544C3.43186 16.7528 3.15667 17.8447 3.09194 18.8345C-0.319246 17.8181 0.00851625 13.85 0.00851625 13.85C0.477897 14.2495 1.02419 14.4403 1.73638 14.2006C0.307953 11.8659 1.23459 9.81983 1.23459 9.81983C2.89367 12.9579 5.69384 13.1043 5.88403 13.1088Z" fill="white"/>
<path d="M3.3671 17.2011C3.21738 17.7737 3.12432 18.3196 3.09194 18.8345C-0.319246 17.8181 0.00851625 13.85 0.00851625 13.85C0.267496 14.0719 0.546712 14.2273 0.866372 14.2805C1.16176 15.3591 1.83754 16.6019 3.3671 17.2011Z" fill="white"/>
<path d="M13.6161 22.4694C8.39611 22.4826 6.77347 18.4169 6.77347 18.4169C7.29953 18.6833 9.03142 19.1227 9.49272 18.4347C9.49272 18.4347 7.53421 17.5203 8.03194 15.8736C8.03194 15.8736 10.9049 17.0055 13.6525 15.452C16.4041 13.8985 18.8968 14.7196 19.176 17.4049C19.4592 20.0903 18.2857 22.4605 13.6161 22.4694Z" fill="white"/>
<path d="M13.6169 22.4697C10.6022 22.4785 8.78536 21.1248 7.79396 19.9796C8.85009 20.7342 10.3392 21.3467 12.3705 21.3423C17.0402 21.3334 18.2137 18.9632 17.9304 16.2779C17.8738 15.7452 17.7321 15.2881 17.5177 14.9064C18.4241 15.2925 19.0432 16.1403 19.1767 17.4052C19.46 20.0906 18.2865 22.4608 13.6169 22.4697Z" fill="white"/>
<path d="M24.1782 8.94983C23.3284 9.5357 22.8267 9.70886 21.6208 9.91302C21.4873 9.93079 21.3457 9.96628 21.1959 10.0195C20.9612 10.1038 20.7751 10.2148 20.6335 10.348H20.6294C18.6062 9.26945 20.9248 7.26321 20.9248 7.26321C20.6861 5.74965 21.718 5.03061 21.718 5.03061C22.9926 7.42294 25.1534 5.31907 25.1534 5.31907C26.5737 7.47626 24.1782 8.94983 24.1782 8.94983Z" fill="white"/>
<path d="M24.4905 10.4882C23.5841 11.0655 22.9617 9.7184 21.6208 9.91086C22.828 9.70928 23.3293 9.53516 24.1773 8.94866C24.1773 8.94866 25.4806 9.84211 24.4905 10.4882Z" fill="white"/>
<path d="M18.5326 4.34738C18.5326 5.02909 18.1401 5.57622 17.6535 5.57622C17.167 5.57622 16.7745 5.02908 16.7745 4.34738C16.7745 3.67017 17.167 3.12303 17.6535 3.12303C18.1401 3.12303 18.5326 3.67017 18.5326 4.34738Z" fill="white"/>
<path d="M18.2946 3.50372H18.2825C17.7928 3.50372 17.4003 4.04971 17.4003 4.72432C17.4003 5.05721 17.4934 5.35906 17.6472 5.57654C17.1616 5.5721 16.7731 5.02617 16.7731 4.34705C16.7731 3.66794 17.1657 3.12201 17.6553 3.12201C17.9061 3.12201 18.1327 3.26852 18.2946 3.50372Z" fill="white"/>
<path d="M11.8069 6.65844C11.6583 6.65844 11.5283 6.53838 11.507 6.37236C11.4058 5.58998 11.5497 4.78073 11.912 4.09328C12.2736 3.40798 12.8454 2.85707 13.5215 2.54282C13.6757 2.47 13.8543 2.55019 13.9195 2.71923C13.9851 2.88871 13.9128 3.0842 13.7586 3.15572C13.2026 3.41406 12.7336 3.86572 12.4376 4.42704C12.1428 4.98576 12.0258 5.64374 12.1076 6.27874C12.1313 6.46079 12.016 6.62941 11.85 6.65498C11.8354 6.65757 11.8211 6.65844 11.8069 6.65844Z" fill="white"/>
</svg>
