<svg width="40" height="40" viewBox="0 0 40 40" fill="none" xmlns="http://www.w3.org/2000/svg">
<path d="M22.6723 28.1816C22.2634 28.2197 21.8529 28.1274 21.4996 27.9179C21.2414 27.6529 21.1177 27.285 21.1632 26.9179C21.1728 26.6123 21.2093 26.3081 21.2723 26.0088C21.3333 25.6656 21.4121 25.3257 21.5086 24.9906L22.5814 21.2997C22.692 20.9354 22.7651 20.5607 22.7996 20.1815C22.7996 19.7724 22.8541 19.4906 22.8541 19.327C22.8769 18.5978 22.5656 17.8981 22.0086 17.427C21.3236 16.901 20.4704 16.6425 19.6086 16.6997C18.9911 16.709 18.3782 16.8101 17.7904 16.9997C17.148 17.1997 16.4722 17.4391 15.7632 17.7179L15.4541 18.9179C15.6632 18.8452 15.9178 18.7634 16.2086 18.6724C16.4861 18.5902 16.7738 18.5474 17.0632 18.5452C17.4691 18.5012 17.8777 18.6009 18.2177 18.827C18.4486 19.1025 18.557 19.4605 18.5177 19.8179C18.5167 20.1236 18.4832 20.4284 18.4177 20.727C18.354 21.0452 18.2722 21.3815 18.1722 21.736L17.0904 25.4451C17.0032 25.7899 16.9335 26.1388 16.8814 26.4906C16.8389 26.7917 16.8176 27.0955 16.8177 27.3996C16.8132 28.1338 17.1489 28.8286 17.7268 29.2814C18.4224 29.8156 19.2877 30.0803 20.1631 30.0269C20.7795 30.0395 21.3938 29.9505 21.9813 29.7632C22.4964 29.5874 23.1843 29.336 24.045 29.0087L24.3359 27.8632C24.1028 27.9599 23.8627 28.0389 23.6177 28.0995C23.3079 28.1703 22.9897 28.1978 22.6723 28.1816Z" fill="white"/>
<path d="M23.8092 10.6817C23.3145 10.2273 22.6626 9.98283 21.991 9.99986C21.3199 9.9847 20.6686 10.2289 20.1728 10.6817C19.2641 11.4652 19.1626 12.8372 19.9463 13.746C20.0161 13.827 20.0918 13.9027 20.1728 13.9726C21.2081 14.8986 22.7739 14.8986 23.8092 13.9726C24.7179 13.1813 24.8131 11.8031 24.0218 10.8944C23.956 10.8187 23.8849 10.7476 23.8092 10.6817Z" fill="white"/>
<path d="M20 0C8.9543 0 0 8.9543 0 20C0 31.0457 8.9543 40 20 40C31.0457 40 40 31.0457 40 20C40 8.9543 31.0457 0 20 0ZM20 38.1818C9.95844 38.1818 1.8182 30.0416 1.8182 20C1.8182 9.95844 9.95844 1.8182 20 1.8182C30.0416 1.8182 38.1818 9.95844 38.1818 20C38.1818 30.0416 30.0416 38.1818 20 38.1818Z" fill="white"/>
</svg>
