<svg width="40" height="40" viewBox="0 0 40 40" fill="none" xmlns="http://www.w3.org/2000/svg">
<path d="M20.044 40H19.956C8.95238 40 0 31.0476 0 20.044V19.956C0 8.95238 8.95238 0 19.956 0H20.044C31.0476 0 40 8.95238 40 19.956V20.044C40 31.0476 31.0476 40 20.044 40ZM19.956 1.35396C9.69841 1.35396 1.35396 9.69841 1.35396 19.956V20.044C1.35396 30.3016 9.69841 38.646 19.956 38.646H20.044C30.3016 38.646 38.646 30.3016 38.646 20.044V19.956C38.646 9.69841 30.3016 1.35396 20.044 1.35396H19.956Z" fill="white"/>
<path d="M25.9807 8.53906L14.0225 8.53906C10.7189 8.53906 8.03125 11.2267 8.03125 14.5303V25.4703C8.03125 28.774 10.7189 31.4616 14.0225 31.4616H25.9807C29.2843 31.4616 31.972 28.774 31.972 25.4703V14.5303C31.972 11.2267 29.2843 8.53906 25.9807 8.53906ZM10.1448 14.5303C10.1448 12.3924 11.8846 10.6526 14.0225 10.6526H25.9807C28.1186 10.6526 29.8584 12.3924 29.8584 14.5303V25.4703C29.8584 27.6082 28.1186 29.3481 25.9807 29.3481H14.0225C11.8846 29.3481 10.1448 27.6082 10.1448 25.4703V14.5303Z" fill="white"/>
<path d="M20.0006 25.5726C23.0728 25.5726 25.5735 23.0731 25.5735 19.9997C25.5735 16.9262 23.0741 14.4268 20.0006 14.4268C16.9271 14.4268 14.4277 16.9262 14.4277 19.9997C14.4277 23.0731 16.9271 25.5726 20.0006 25.5726ZM20.0006 16.5416C21.9084 16.5416 23.46 18.0933 23.46 20.001C23.46 21.9087 21.9084 23.4604 20.0006 23.4604C18.0929 23.4604 16.5413 21.9087 16.5413 20.001C16.5413 18.0933 18.0929 16.5416 20.0006 16.5416Z" fill="white"/>
<path d="M26.0914 15.3263C26.9186 15.3263 27.5929 14.6534 27.5929 13.8248C27.5929 12.9962 26.92 12.3232 26.0914 12.3232C25.2628 12.3232 24.5898 12.9962 24.5898 13.8248C24.5898 14.6534 25.2628 15.3263 26.0914 15.3263Z" fill="white"/>
</svg>
