<svg width="40" height="40" viewBox="0 0 40 40" fill="none" xmlns="http://www.w3.org/2000/svg">
<path d="M20 0.225586C30.9034 0.225586 39.7744 9.09655 39.7744 20C39.7744 30.9034 30.9034 39.7744 20 39.7744C9.09655 39.7744 0.225586 30.9034 0.225586 20C0.225586 9.09655 9.09655 0.225586 20 0.225586ZM20 1.87988C10.0083 1.87988 1.87988 10.0083 1.87988 20C1.87988 29.9917 10.0083 38.1201 20 38.1201C29.9917 38.1201 38.1201 29.9917 38.1201 20C38.1201 10.0083 29.9917 1.87988 20 1.87988Z" fill="white" stroke="#111111" stroke-width="0.450911"/>
<path d="M11.7329 28.4443C11.1951 28.4443 10.7349 28.2487 10.3523 27.8573C9.96964 27.466 9.778 26.995 9.77734 26.4443V14.4443C9.77734 13.8943 9.96899 13.4237 10.3523 13.0323C10.7356 12.641 11.1958 12.445 11.7329 12.4443H27.3773C27.9151 12.4443 28.3757 12.6403 28.7589 13.0323C29.1422 13.4243 29.3335 13.895 29.3329 14.4443V26.4443C29.3329 26.9943 29.1416 27.4653 28.7589 27.8573C28.3763 28.2493 27.9158 28.445 27.3773 28.4443H11.7329ZM27.3773 16.4443L20.0685 21.1193C19.987 21.1693 19.9016 21.207 19.8123 21.2323C19.723 21.2577 19.6373 21.27 19.5551 21.2693C19.473 21.2687 19.3876 21.2563 19.2989 21.2323C19.2103 21.2083 19.1246 21.1707 19.0418 21.1193L11.7329 16.4443V26.4443H27.3773V16.4443ZM19.5551 19.4443L27.3773 14.4443H11.7329L19.5551 19.4443ZM11.7329 16.6943V15.2193V15.2443V15.2323V16.6943Z" fill="white"/>
</svg>
