<svg width="14" height="14" viewBox="0 0 14 14" fill="none" xmlns="http://www.w3.org/2000/svg">
<path d="M7 0.849609C10.3992 0.849609 13.1504 3.60075 13.1504 7C13.1504 10.3992 10.3992 13.1504 7 13.1504C3.60075 13.1504 0.849609 10.3992 0.849609 7C0.849609 3.60075 3.60075 0.849609 7 0.849609ZM7 1.90039C4.18831 1.90039 1.90039 4.18831 1.90039 7C1.90039 9.81212 4.18875 12.1113 7 12.1113C9.81125 12.1113 12.0996 9.81212 12.0996 7C12.0996 4.18831 9.81169 1.90039 7 1.90039ZM9.625 6.47461C9.91878 6.47461 10.1504 6.70622 10.1504 7C10.1504 7.29378 9.91878 7.52539 9.625 7.52539H4.375C4.08122 7.52539 3.84961 7.29378 3.84961 7C3.84961 6.70622 4.08122 6.47461 4.375 6.47461H9.625Z" fill="black" stroke="black" stroke-width="0.3"/>
</svg>
