<svg width="14" height="14" viewBox="0 0 14 14" fill="none" xmlns="http://www.w3.org/2000/svg">
<path d="M7 0.900391C10.3691 0.900391 13.0996 3.63109 13.0996 7C13.0996 10.3691 10.3691 13.0996 7 13.0996C3.63109 13.0996 0.900391 10.3691 0.900391 7C0.900391 3.63108 3.63108 0.900391 7 0.900391ZM7 1.84961C4.16042 1.84961 1.84961 4.16042 1.84961 7C1.84962 9.83989 4.16072 12.1621 7 12.1621C9.83928 12.1621 12.1504 9.83986 12.1504 7C12.1504 4.16043 9.83958 1.84961 7 1.84961ZM7 3.90039C7.26223 3.90039 7.47461 4.11277 7.47461 4.375V6.52539H9.625C9.88723 6.52539 10.0996 6.73777 10.0996 7C10.0996 7.26223 9.88723 7.47461 9.625 7.47461H7.47461V9.625C7.47461 9.88723 7.26223 10.0996 7 10.0996C6.73777 10.0996 6.52539 9.88723 6.52539 9.625V7.47461H4.375C4.11277 7.47461 3.90039 7.26223 3.90039 7C3.90039 6.73777 4.11277 6.52539 4.375 6.52539H6.52539V4.375C6.52539 4.11277 6.73777 3.90039 7 3.90039Z" fill="black" stroke="black" stroke-width="0.2"/>
</svg>
