<svg width="40" height="40" viewBox="0 0 40 40" fill="none" xmlns="http://www.w3.org/2000/svg">
<path d="M20.044 40H19.956C8.95236 40 0 31.0476 0 20.044V19.956C0 8.95238 8.95236 0 19.956 0H20.044C31.0476 0 40 8.95238 40 19.956V20.044C40 31.0476 31.0476 40 20.044 40ZM19.956 1.35396C9.69839 1.35396 1.35396 9.69841 1.35396 19.956V20.044C1.35396 30.3016 9.69839 38.646 19.956 38.646H20.044C30.3016 38.646 38.646 30.3016 38.646 20.044V19.956C38.646 9.69841 30.3016 1.35396 20.044 1.35396H19.956Z" fill="white"/>
<path d="M8.95845 19.1944C9.01261 19.1673 9.06679 19.1416 9.1196 19.1172C10.0376 18.6921 10.9678 18.294 11.8966 17.8959C11.9467 17.8959 12.0306 17.8377 12.078 17.8187C12.1497 17.7876 12.2215 17.7578 12.2933 17.7267C12.4314 17.6671 12.5695 17.6089 12.7062 17.5493C12.9824 17.4315 13.2573 17.3137 13.5335 17.1959C14.0845 16.9603 14.6356 16.7248 15.1867 16.4878C16.2888 16.0166 17.3923 15.5441 18.4944 15.0729C19.5965 14.6017 20.7 14.1292 21.8021 13.658C22.9042 13.1869 24.0077 12.7143 25.1098 12.2431C26.212 11.772 27.3155 11.2994 28.4176 10.8283C28.6626 10.7226 28.928 10.5656 29.1907 10.5196C29.4114 10.4803 29.6266 10.4045 29.8487 10.3625C30.2698 10.2826 30.7342 10.2501 31.1377 10.4248C31.2771 10.4857 31.4057 10.571 31.5127 10.678C32.0245 11.1843 31.9527 12.0157 31.8444 12.7279C31.0903 17.6915 30.3361 22.6564 29.5806 27.6201C29.4777 28.3011 29.3369 29.0485 28.7994 29.479C28.3444 29.8433 27.6972 29.8839 27.1353 29.7295C26.5735 29.5738 26.0779 29.2475 25.5919 28.9266C23.5758 27.5916 21.5584 26.2566 19.5424 24.9216C19.0631 24.6048 18.5296 24.1905 18.535 23.6151C18.5377 23.2684 18.7449 22.9597 18.9561 22.6849C20.7081 20.3994 23.236 18.8288 25.1166 16.6489C25.382 16.3416 25.5905 15.7865 25.2263 15.6091C25.0097 15.5035 24.7605 15.647 24.5628 15.7838C22.077 17.5101 19.5925 19.2377 17.1066 20.964C16.2956 21.5272 15.4453 22.1067 14.4677 22.2448C13.5931 22.3694 12.713 22.1257 11.8668 21.8766C11.1573 21.6681 10.4492 21.4541 9.74375 21.2334C9.36871 21.117 8.98147 20.9911 8.69172 20.727C8.40198 20.463 8.23546 20.0189 8.41012 19.6669C8.51979 19.4462 8.73237 19.3067 8.95577 19.193L8.95845 19.1944Z" fill="white"/>
</svg>
