<svg width="40" height="40" viewBox="0 0 40 40" fill="none" xmlns="http://www.w3.org/2000/svg">
<path d="M29.3421 14.7716V18.4205C28.7044 18.3582 27.8757 18.2134 26.9591 17.8776C25.7622 17.4389 24.8713 16.8391 24.2877 16.3747V23.7497L24.2729 23.7267C24.2823 23.8729 24.2877 24.0219 24.2877 24.1721C24.2877 27.8346 21.3077 30.816 17.6439 30.816C13.9801 30.816 11 27.8346 11 24.1721C11 20.5097 13.9801 17.5269 17.6439 17.5269C18.0027 17.5269 18.3547 17.5553 18.6986 17.6108V21.207C18.3682 21.0892 18.0135 21.0255 17.6439 21.0255C15.9095 21.0255 14.4973 22.4364 14.4973 24.1721C14.4973 25.9079 15.9095 27.3187 17.6439 27.3187C19.3783 27.3187 20.7905 25.9066 20.7905 24.1721C20.7905 24.1072 20.7891 24.0422 20.7851 23.9772V9.64551H24.4313C24.4448 9.95421 24.457 10.2656 24.4705 10.5743C24.4949 11.1822 24.7115 11.7658 25.0893 12.2437C25.532 12.8056 26.186 13.4583 27.104 13.9795C27.9637 14.4656 28.7707 14.6755 29.3421 14.7743V14.7716Z" fill="white"/>
<path d="M20.044 40H19.956C8.95238 40 0 31.0476 0 20.044L0 19.956C0 8.95238 8.95238 0 19.956 0L20.044 0C31.0476 0 40 8.95238 40 19.956V20.044C40 31.0476 31.0476 40 20.044 40ZM19.956 1.35396C9.69841 1.35396 1.35396 9.69841 1.35396 19.956V20.044C1.35396 30.3016 9.69841 38.646 19.956 38.646H20.044C30.3016 38.646 38.646 30.3016 38.646 20.044V19.956C38.646 9.69841 30.3016 1.35396 20.044 1.35396H19.956Z" fill="white"/>
</svg>
