<svg width="15" height="15" viewBox="0 0 15 15" fill="none" xmlns="http://www.w3.org/2000/svg">
<path d="M14.2139 0.370335L14.6253 0.77729C15.1922 1.33875 15.1064 2.33406 14.4321 3.00036L5.94843 11.3926L3.19978 12.3872C2.85463 12.5128 2.51855 12.35 2.45021 12.0251C2.4272 11.9072 2.43807 11.7854 2.48159 11.6733L3.50658 8.93086L11.9666 0.561397C12.6408 -0.104905 13.647 -0.191124 14.2139 0.370335ZM5.57818 1.20494C5.66974 1.20494 5.76041 1.22278 5.84501 1.25744C5.92961 1.2921 6.00647 1.34291 6.07122 1.40696C6.13597 1.47101 6.18733 1.54705 6.22237 1.63073C6.25741 1.71442 6.27545 1.80411 6.27545 1.89469C6.27545 1.98527 6.25741 2.07496 6.22237 2.15865C6.18733 2.24233 6.13597 2.31837 6.07122 2.38242C6.00647 2.44647 5.92961 2.49728 5.84501 2.53194C5.76041 2.5666 5.66974 2.58444 5.57818 2.58444H2.78909C2.41923 2.58444 2.06452 2.72978 1.803 2.98849C1.54147 3.2472 1.39454 3.59808 1.39454 3.96395V12.241C1.39454 12.6069 1.54147 12.9577 1.803 13.2164C2.06452 13.4752 2.41923 13.6205 2.78909 13.6205H11.1563C11.5262 13.6205 11.8809 13.4752 12.1424 13.2164C12.404 12.9577 12.5509 12.6069 12.5509 12.241V9.48197C12.5509 9.29904 12.6244 9.1236 12.7551 8.99425C12.8859 8.86489 13.0632 8.79222 13.2482 8.79222C13.4331 8.79222 13.6104 8.86489 13.7412 8.99425C13.872 9.1236 13.9454 9.29904 13.9454 9.48197V12.241C13.9454 12.9727 13.6516 13.6745 13.1285 14.1919C12.6055 14.7093 11.8961 15 11.1563 15H2.78909C2.04938 15 1.33996 14.7093 0.816905 14.1919C0.293849 13.6745 0 12.9727 0 12.241V3.96395C0 3.23221 0.293849 2.53045 0.816905 2.01303C1.33996 1.49562 2.04938 1.20494 2.78909 1.20494H5.57818Z" fill="white"/>
</svg>
