<svg xmlns="http://www.w3.org/2000/svg" fill="none" viewBox="0 0 1323 288"><g filter="url(#a)"><path fill="#000" d="m97 199 29-188h57v265h-39V86l-29 190H76L45 89v187H9V11h58l30 188Zm155 16c0 10 2 17 5 21 5 3 10 5 16 5s12-2 16-5c4-4 6-11 6-21V72c0-9-2-16-6-20s-9-6-16-6-11 2-16 6c-3 4-5 11-5 20v143ZM210 75c0-22 6-38 16-49 11-12 27-18 47-18s36 6 47 18c11 11 16 27 16 49v137c0 22-5 38-16 50-11 11-26 17-47 17s-36-6-47-17c-10-12-16-28-16-50V75Zm192 140c0 10 2 17 5 21 4 3 10 5 16 5s12-2 16-5c4-4 6-11 6-21V72c0-9-2-16-6-20s-9-6-16-6-12 2-16 6c-3 4-5 11-5 20v143ZM360 75c0-22 6-38 16-49 11-12 27-18 47-18s36 6 47 18c11 11 16 27 16 49v137c0 22-5 38-16 50-11 11-26 17-47 17s-36-6-47-17c-10-12-16-28-16-50V75Zm153-64h66c21 0 37 6 47 17s15 27 15 49v134c0 21-5 37-15 48s-26 17-47 17h-66V11Zm42 38v189h23c7 0 12-2 16-5 4-4 6-11 6-21V75c0-10-2-16-6-20s-9-6-16-6h-23Zm171-38h66c21 0 37 6 47 17s15 27 15 49v134c0 21-5 37-15 48s-26 17-47 17h-66V11Zm42 38v189h23c7 0 12-2 16-5 4-4 6-11 6-21V75c0-10-2-16-6-20s-9-6-16-6h-23Zm152-38v205c0 9 2 16 6 20 4 3 9 5 16 5s12-2 15-5c4-4 6-11 6-20V11h40v202c0 21-6 38-16 49-10 12-26 17-46 17s-36-5-47-17a72 72 0 0 1-15-49V11h41Zm232 166v35c0 22-5 38-16 50-10 11-26 17-46 17-21 0-36-6-47-17a72 72 0 0 1-15-50V75c0-22 5-38 15-49 11-12 26-18 47-18 20 0 36 6 46 18 11 11 16 27 16 49v26h-39V72c0-9-2-16-7-20-3-4-8-6-15-6s-12 2-16 6-6 11-6 20v143c0 10 2 16 6 20s9 6 16 6 12-2 15-6c5-4 7-10 7-20v-38h39Zm80-6-13 24v81h-42V11h42v116l55-116h41l-58 118 58 147h-43l-40-105Z"/></g><defs><filter id="a" width="1321.9" height="287" x=".7" y=".4" color-interpolation-filters="sRGB" filterUnits="userSpaceOnUse"><feFlood flood-opacity="0" result="BackgroundImageFix"/><feBlend in="SourceGraphic" in2="BackgroundImageFix" result="shape"/><feTurbulence baseFrequency="0.25 0.25" numOctaves="3" seed="8873" type="fractalNoise"/><feDisplacementMap width="100%" height="100%" in="shape" result="displacedImage" scale="16" xChannelSelector="R" yChannelSelector="G"/><feMerge result="effect1_texture_360_1025"><feMergeNode in="displacedImage"/></feMerge></filter></defs></svg>